<svg height="489pt" viewBox="-58 0 489 489.232" width="489pt" xmlns="http://www.w3.org/2000/svg"><path d="m186.515625 361.230469-28.375 9.464843c-13 4.328126-26.609375 6.535157-40.3125 6.535157-23.113281 0-45.785156-6.277344-65.59375-18.167969l-9.71875-5.832031 16-16c-20.617187-10.300781-36.726563-27.824219-45.289063-49.214844l-2.710937-6.785156c26.160156-10.46875 54.695313-13.542969 82.488281-8.910157l5.511719.910157v-16c35.320313 10.097656 63.984375 35.96875 77.632813 70.082031l10.367187 25.917969zm0 0" fill="#a0d468"/><path d="m186.515625 409.230469 28.375 9.464843c13 4.328126 26.609375 6.535157 40.3125 6.535157 23.113281 0 45.785156-6.277344 65.59375-18.167969l9.71875-5.832031-16-16c20.617187-10.300781 36.726563-27.824219 45.289063-49.214844l2.710937-6.785156c-26.167969-10.46875-54.703125-13.542969-82.496094-8.910157l-5.503906.910157v-16c-35.320313 10.097656-63.984375 35.96875-77.632813 70.082031l-10.367187 25.917969zm0 0" fill="#a0d468"/><path d="m74.515625 153.230469-2.855469 1.144531c-22.433594 8.976562-37.144531 30.695312-37.144531 54.855469l8.097656-2.023438c15.871094-3.96875 32.175781-5.976562 48.542969-5.976562h190.71875c16.367188 0 32.671875 2.007812 48.546875 5.976562l8.09375 2.023438c0-24.160157-14.710937-45.878907-37.144531-54.855469l-2.855469-1.144531zm0 0" fill="#ff826e"/><path d="m82.730469 79.648438c-10.023438-2.039063-19.597657-6-28.183594-11.726563l-4.03125-2.691406-1.785156 5.355469c-4.109375 12.351562-6.214844 25.285156-6.214844 38.300781 0 13.023437 5.167969 25.511719 14.382813 34.730469 6.296874 6.292968 14.175781 10.757812 22.808593 12.910156 12.105469 3.03125 23.617188 8.058594 34.066407 14.878906l136.742187 5.824219 7.871094-5.246094c10.671875-7.113281 22.480469-12.34375 34.929687-15.457031 8.632813-2.160156 16.511719-6.617188 22.808594-12.910156 9.214844-9.21875 14.390625-21.707032 14.390625-34.730469 0-13.015625-2.105469-25.949219-6.214844-38.300781l-1.785156-5.355469-4.03125 2.691406c-13.023437 8.679687-28.320313 13.308594-43.96875 13.308594zm0 0" fill="#e9573f"/><path d="m130.515625 145.230469-11.757813-5.871094c-22.210937-11.113281-36.242187-33.816406-36.242187-58.648437 0-10.183594 2.367187-20.214844 6.921875-29.320313l17.078125-34.160156 13.410156 4.472656c7.015625 2.335937 14.367188 3.527344 21.75 3.527344 13.585938 0 26.863281-4.023438 38.175781-11.550781l6.664063-4.449219 16 8 6.816406-3.414063c6.039063-3.015625 12.695313-4.585937 19.449219-4.585937 13.679688 0 26.558594 6.449219 34.773438 17.394531 7.113281 9.480469 10.960937 21.015625 10.960937 32.871094v9.238281c0 16.746094-11.398437 31.34375-27.640625 35.410156-2.894531.71875-5.871094 1.085938-8.855469 1.085938h-6.664062c-18.808594 0-37.191407 5.570312-52.839844 16zm0 0" fill="#fc6e51"/><path d="m170.515625 161.230469h-34.421875c-16.335938 0-29.578125 13.242187-29.578125 29.578125 0 6.800781 2.007813 13.4375 5.785156 19.09375 6.375 9.578125 17.128907 15.328125 28.640625 15.328125 18.125 0 34.695313 10.242187 42.804688 26.457031l2.769531 5.542969 23.128906-18.496094c10.917969-8.742187 24.496094-13.503906 38.480469-13.503906h2.390625c13.257813 0 24-10.742188 24-24 0-13.253907-10.742187-24-24-24h-24zm0 0" fill="#fc6e51"/><path d="m130.515625 161.230469v-56h34.671875l10.335938 43.671875 2.992187 12.328125zm0 0" fill="#e9573f"/><path d="m246.875 104.144531-15.519531 1.085938c-17.96875 0-35.550781 5.089843-50.734375 14.640625 0 0 .695312-.464844 0 0l2.0625 3.191406 43.832031 54.167969h16c15.542969-25.910157 23.808594-55.527344 23.96875-85.742188-4.855469 6.085938-11.632813 10.65625-19.609375 12.65625zm0 0" fill="#ff826e"/><path d="m130.515625 57.230469-9.464844 9.464843c-4.183593 4.183594-6.535156 9.863282-6.535156 15.777344 0 4.40625 1.304687 8.710938 3.753906 12.382813 7.65625 11.480469 20.535157 18.375 34.335938 18.375h9.910156v23.035156c0 10.863281 4.320313 21.285156 12 28.964844 7.679687 7.679687 18.105469 12 28.96875 12h23.03125zm0 0" fill="#ff826e"/><path d="m256.027344 18.855469c-23.480469-19.871094-53.511719-1.625-53.511719-1.625l-16-8c-11.503906 8-18.6875 10.816406-18.6875 10.816406-13.679687 15.050781-21.3125 34.695313-21.3125 55.121094v2.0625l80 100h16c15.472656-25.789063 23.710937-55.246094 23.953125-85.300781l.039062-.074219s3.488282-4.542969 5.824219-11.085938c.785157-2.007812 1.160157-3.539062 1.160157-3.539062 6.976562-42-17.464844-58.375-17.464844-58.375zm0 0" fill="#e9573f"/><path d="m246.875 104.144531c-2.894531.71875-5.871094 1.085938-8.855469 1.085938h-6.664062c-17.960938 0-35.519531 5.136719-50.695313 14.679687l45.855469 57.320313h16c15.472656-25.789063 23.710937-55.246094 23.953125-85.300781l.039062-.074219s1.28125-1.765625 2.785157-4.472657c-4.855469 8.128907-12.738281 14.335938-22.417969 16.761719zm0 0" fill="#fc6e51"/><path d="m274.652344 60.425781c0-.027343 0-.050781 0-.074219h-.007813c-.335937-6.558593-1.785156-18.511718-7.214843-28.113281-.203126-.367187-.355469-.6875-.601563-1.101562-.351563-.542969-.742187-1.082031-1.113281-1.617188-.375-.542969-.671875-1.039062-1.125-1.648437-14.792969-20.109375-35.808594-18.640625-35.808594-18.640625s-10.265625-1-26.265625 8l-16-8-18.6875 10.816406s-13.222656 14.816406-16.769531 28.585937l.792968.886719c26.800782 29.953125 64.9375 47.167969 105.089844 47.617188l.070313.09375h3.808593s4.976563-3.300781 9.007813-10.789063c.160156-.28125.3125-.609375.472656-.898437.421875-.839844.832031-1.679688 1.214844-2.632813.710937-1.582031 1.289063-3.34375 1.800781-5.253906.039063-.144531.070313-.28125.105469-.425781.476563-1.894531.8125-3.941407 1.015625-6.183594.152344-1.335937.183594-2.800781.222656-4.253906-.007812-.546875.105469-.984375.078125-1.554688 0-.007812.058594-1.871093-.085937-4.8125zm0 0" fill="#ff826e"/><path d="m232.828125 77.855469c-8.777344-17.542969-26.703125-28.625-46.3125-28.625l-8 24 .230469-.285157c17.144531 11.503907 36.617187 19.191407 57.097656 22.488282zm0 0" fill="#fc6e51"/><path d="m365.492188 321.808594c-26.335938-10.535156-54.9375-13.953125-82.976563-9.96875v-17.207032l-10.199219 2.910157c-33.59375 9.601562-61.878906 33.167969-77.800781 64.023437v-74.71875c0-16.367187 7.335937-31.632812 20.128906-41.863281 9.457031-7.585937 21.351563-11.753906 33.480469-11.753906h2.390625c14.863281 0 27.289063-10.238281 30.863281-24h.496094c15.695312 0 31.378906 1.929687 46.609375 5.738281l18.03125 4.511719v-10.25c0-22.78125-11.398437-43.285157-29.769531-55.558594 1.753906-1.375 3.457031-2.816406 5.042968-4.398437 10.78125-10.785157 16.726563-25.128907 16.726563-40.386719 0-13.894531-2.230469-27.640625-6.632813-40.832031l-5.085937-15.292969-12.753906 8.496093c-9.597657 6.390626-20.503907 10.183594-31.863281 11.40625.121093-1.304687.335937-2.59375.335937-3.929687v-9.238281c0-13.503906-4.464844-26.878906-12.558594-37.671875-9.671875-12.894531-25.066406-20.59375-41.175781-20.59375-7.945312 0-15.90625 1.882812-23.023438 5.433593l-3.242187 1.625-16.566406-8.289062-10.519531 7.015625c-15.472657 10.3125-35.289063 12.984375-52.96875 7.089844l-19.992188-6.664063-20.175781 40.359375c-3.378907 6.75-5.59375 14.0625-6.769531 21.542969-5.816407-1.984375-11.367188-4.640625-16.535157-8.078125l-12.753906-8.496094-5.085937 15.285157c-4.402344 13.191406-6.632813 26.9375-6.632813 40.832031 0 15.257812 5.945313 29.601562 16.726563 40.386719 1.585937 1.582031 3.289062 3.023437 5.042968 4.398437-18.359375 12.273437-29.769531 32.777344-29.769531 55.558594v10.25l18.03125-4.503907c15.234375-3.816406 30.914063-5.746093 46.609375-5.746093h11.589844c.851562 1.753906 1.800781 3.472656 2.890625 5.113281 7.886719 11.824219 21.078125 18.886719 35.304687 18.886719 15.191406 0 28.847656 8.441406 35.648438 22.035156l1.925781 3.855469v54.445312c-15.917969-30.855468-44.207031-54.421875-77.800781-64.023437l-10.199219-2.917969v17.207031c-28.039063-3.976562-56.648437-.566406-82.976563 9.96875l-7.421874 2.976563 5.679687 14.207031c7.941406 19.847656 21.824219 36.574219 39.648437 48l-15.832031 15.832031 18.503907 11.09375c21.054687 12.640625 45.160156 19.320313 69.710937 19.320313 14.574219 0 28.992187-2.335938 42.839844-6.949219l17.847656-5.945312v116.894531h16v-68.894531l17.847656 5.953124c13.847657 4.605469 28.265625 6.941407 42.839844 6.941407 24.554687 0 48.664063-6.679688 69.703125-19.308594l18.503906-11.097656-15.832031-15.832031c17.824219-11.433594 31.707031-28.160157 39.648437-48.007813l5.679688-14.207031zm-36.046876-123.074219c-15.578124-3.65625-31.570312-5.503906-47.570312-5.503906h-.496094c-1.941406-7.46875-6.4375-13.894531-12.589844-18.207031 8.304688-4.765626 17.167969-8.40625 26.472657-10.734376 1.703125-.425781 3.34375-1.042968 5-1.617187 15.167969 6.785156 25.894531 20.175781 29.183593 36.0625zm-136.65625-76.46875c11.957032-5.914063 25.085938-9.035156 38.566407-9.035156h6.664062c3.617188 0 7.242188-.445313 10.792969-1.328125 3.03125-.757813 5.863281-1.902344 8.589844-3.222656-2.414063 21.25-9.0625 41.832031-19.597656 60.550781h-7.449219zm-38.273437-22.226563v5.191407h-1.910156c-11.144531 0-21.496094-5.535157-27.671875-14.804688-1.585938-2.371093-2.417969-5.121093-2.417969-7.953125 0-3.769531 1.527344-7.457031 4.191406-10.128906l3.144531-3.144531zm-16 19.058594c4.519531 1.351563 9.242187 2.132813 14.089844 2.132813h1.910156v15.035156c0 5.886719 1.089844 11.597656 3.0625 16.964844h-19.0625zm16.03125-44.632812c.03125-3.394532.34375-6.753906.832031-10.074219 17.007813 15.898437 37.351563 27.53125 59.402344 34.210937-11.25 1.824219-22.097656 5.511719-32.175781 10.925782zm33.695313-5.105469 3.921874-11.765625c14.367188 1.832031 26.894532 10.621094 33.503907 23.839844l2.0625 4.117187c-13.957031-3.269531-27.269531-8.75-39.488281-16.191406zm-17.726563 50.679687 39.351563 49.191407h-6.382813c-8.679687 0-17.175781-3.519531-23.3125-9.65625-6.136719-6.132813-9.65625-14.628907-9.65625-23.308594zm147.578125-42.464843c2.933594 10.1875 4.421875 20.699219 4.421875 31.3125 0 10.984375-4.28125 21.304687-12.039063 29.074219-5.273437 5.261718-11.871093 9-19.097656 10.808593-11.320312 2.832031-22.046875 7.359375-32.0625 13.300781 9.472656-21.359374 14.597656-44.429687 15.078125-67.902343 1.152344-1.648438 2.234375-3.34375 3.152344-5.136719 14.304687-.496094 28.175781-4.320312 40.546875-11.457031zm-133.800781-57.238281 2.800781-1.871094 15.421875 7.710937 10.390625-5.199219c4.90625-2.449218 10.394531-3.746093 15.875-3.746093 11.101562 0 21.703125 5.304687 28.375 14.195312 6.03125 8.039063 9.359375 18.015625 9.359375 28.070313v9.238281c0 7.945313-3.304687 15.226563-8.703125 20.457031-3.578125-.015625-7.121094-.261718-10.648438-.566406l-7.175781-14.351562c-10.191406-20.378907-30.679687-33.042969-53.472656-33.042969h-5.769531l-6.175782 18.53125c-5.039062-4-9.832031-8.347657-14.285156-13.082031 3.0625-7.328126 7.304688-14.167969 12.640625-20.246094 3.925781-1.746094 7.757813-3.699219 11.367188-6.097656zm-87.695313 34.632812 13.972656-27.953125 6.832032 2.273437c10.320312 3.4375 21.210937 4.464844 31.882812 3.390626-4.082031 7.59375-7.058594 15.710937-8.816406 24.167968l-9.28125-11.601562-15.792969 15.792968c-5.648437 5.648438-8.878906 13.457032-8.878906 21.441407 0 6 1.761719 11.816406 5.097656 16.824219 3.015625 4.511718 6.734375 8.359374 10.902344 11.582031v21.410156l-.175781-.089844c-19.632813-9.824219-31.824219-29.550781-31.824219-51.496093 0-8.894532 2.105469-17.800782 6.082031-25.742188zm-46.082031 53.917969c0-10.613281 1.488281-21.125 4.425781-31.3125 6.277344 3.625 12.949219 6.417969 19.941406 8.378906 1.824219 25.894531 16.808594 48.808594 40.304688 60.558594l7.328125 3.664062v5.6875c-3.542969 1.382813-6.769531 3.335938-9.695313 5.671875-9.734374-5.671875-20.167968-10.015625-31.167968-12.773437-7.222656-1.808594-13.824219-5.546875-19.097656-10.808594-7.757813-7.761719-12.039063-18.082031-12.039063-29.066406zm40.640625 84.34375c-16 0-31.992188 1.847656-47.566406 5.503906 3.285156-15.894531 14.015625-29.285156 29.191406-36.0625 1.648438.574219 3.285156 1.183594 4.992188 1.617187 8.71875 2.183594 17.046874 5.480469 24.863281 9.78125-2.550781 5.066407-4.121094 10.699219-4.121094 16.738282 0 .816406.128906 1.617187.175781 2.421875zm49.785156 24c-8.855468 0-17.074218-4.398438-21.984375-11.765625-2.90625-4.351563-4.441406-9.417969-4.441406-14.65625 0-11.898438 9.679687-21.578125 21.578125-21.578125h31.261719c.503906.554687.96875 1.128906 1.503906 1.65625 9.25 9.25 21.542969 14.34375 34.625 14.34375h47.03125c8.824219 0 16 7.175781 16 16s-7.175781 16-16 16h-2.390625c-15.753906 0-31.191406 5.417969-43.480469 15.257812-5.496093 4.398438-10.136719 9.558594-13.992187 15.207031-9.601563-18.792968-28.585938-30.464843-49.710938-30.464843zm14.671875 145.875c-32.792969 10.910156-69.664062 6.855469-99.265625-10.90625l-.925781-.558594 16.605469-16.601563-9.925782-4.96875c-18.609374-9.292968-33.167968-24.964843-41.097656-44.183593 22.6875-7.671875 46.953125-9.648438 70.695313-5.679688l14.816406 2.464844v-14.273437c28.082031 11.136718 50.914063 33.65625 62.199219 61.890624l4.050781 10.109376-2.425781-1.886719c-34.457032-26.792969-75.542969-43.808594-118.832032-49.214844l-1.984374 15.871094c40.433593 5.054687 78.816406 20.953125 110.992187 45.96875l9.296875 7.230469zm155.328125 14.964843-9.929687 4.96875 16.609375 16.601563-.9375.558594c-29.597656 17.753906-66.480469 21.816406-99.253906 10.90625l-14.203126-4.738281 9.289063-7.222657c32.183594-25.023437 70.558594-40.921875 111-45.976562l-1.984375-15.871094c-43.289062 5.40625-84.375 22.421875-118.832031 49.214844l-2.421875 1.886719 4.046875-10.117188c11.296875-28.234375 34.128906-50.753906 62.207031-61.890625v14.273437l14.824219-2.464843c23.730469-3.960938 48-1.992188 70.6875 5.679687-7.933594 19.234375-22.503907 34.898438-41.101563 44.191406zm0 0"/></svg>